<svg fill="none" height="63" viewBox="0 0 63 63" width="63" xmlns="http://www.w3.org/2000/svg" xmlns:xlink="http://www.w3.org/1999/xlink"><clipPath id="a"><path d="m.775391 0h61.6744v62.5213h-61.6744z"/></clipPath><g clip-path="url(#a)"><path d="m17.6345 57.0096c-5.5067-2.3935-10.09655-6.4965-13.09005-11.7015-7.75884-13.4372-3.15439-30.6197 10.28285-38.37741.915-.52819 1.8588-1.00493 2.8269-1.428-8.23247 6.06611-12.33422 16.00881-11.22316 25.78421-.54725 4.8931.19948 9.844 2.16553 14.358 1.96603 4.514 5.08253 8.4328 9.03793 11.3647z" fill="#00d2ff"/><path d="m62.2708 31.2347c-.5629-4.891-2.3996-9.5486-5.3264-13.5075-2.9267-3.9589-6.8412-7.0804-11.3522-9.05264-7.9098-5.84903-18.5699-7.26775-27.9379-3.17181.8498-.62758 1.7343-1.20668 2.6494-1.7345 13.4372-7.75768 30.6197-3.153228 38.3774 10.28395 3.0099 5.1937 4.2686 11.2182 3.5897 17.1825z" fill="#00d200"/><path d="m45.5959 8.67463c-4.0322-1.76015-8.4213-2.5488-12.8139-2.30244-4.3927.24637-8.6661 1.52086-12.4761 3.72081-3.81 2.2-7.0501 5.264-9.4594 8.9452-2.40932 3.6812-3.92044 7.8768-4.4117 12.2489-1.11106-9.7755 2.99069-19.7181 11.2232-25.78427 9.368-4.09595 20.0281-2.6772 27.9379 3.1718z" fill="#00aadc"/><path d="m45.5723 53.8563c-3.9706 2.9305-8.6424 4.7646-13.5461 5.3181-4.9037.5534-9.8668-.1932-14.3906-2.1648-3.9554-2.932-7.0719-6.8508-9.03797-11.3647-1.96605-4.514-2.71277-9.465-2.16552-14.358.43672 3.828 1.65879 7.5246 3.58979 10.8586 7.2236 12.5119 22.617 17.3648 35.5504 11.7108z" fill="#78e6ff"/><path d="m48.3984 58.7524c-9.9879 5.7678-22.0458 4.7032-30.7636-1.7426 4.5238 1.9717 9.4869 2.7183 14.3906 2.1648s9.5755-2.3876 13.5461-5.318c.9681-.4231 1.9119-.8999 2.8269-1.428 3.8126-2.197 7.0549-5.2602 9.4648-8.9419s3.9198-7.8787 4.4078-12.2518c1.2248 10.7739-3.8823 21.7498-13.8726 27.5175z" fill="#ffd400"/><path d="m62.2718 31.2347c-.488 4.3732-1.9979 8.5702-4.4078 12.2519s-5.6522 6.7448-9.4647 8.9419c-.9151.5281-1.8589 1.0049-2.827 1.428 11.3625-8.373 14.857-24.131 7.6334-36.6429-1.9228-3.34-4.5144-6.247-7.6125-8.53904 4.511 1.97224 8.4255 5.09374 11.3523 9.05264s4.7634 8.6165 5.3263 13.5075z" fill="#7dff7d"/><path d="m53.2073 17.2137c7.2231 12.5107 3.73 28.2684-7.6333 36.6428-12.9325 5.6541-28.3267.8009-35.5503-11.7108-1.93117-3.3343-3.15338-7.0314-3.59011-10.8599.49187-4.372 2.0035-8.5675 4.41321-12.2485 2.4096-3.681 5.65-6.7448 9.4602-8.9446 3.8102-2.19981 8.0836-3.47418 12.4764-3.7205 4.3927-.24632 8.7818.54229 12.8141 2.30234 3.0971 2.29246 5.6878 5.19946 7.6098 8.53916z" fill="#000"/><path d="m32.5252 55.4791c13.3755 0 24.2186-10.843 24.2186-24.2186 0-13.3755-10.8431-24.21851-24.2186-24.21851s-24.21856 10.84301-24.21856 24.21851c0 13.3756 10.84306 24.2186 24.21856 24.2186z" fill="#000"/><path d="m22.1001 41.7095c-.0019-.1029-.0242-.2045-.0654-.2989s-.1006-.1797-.1748-.2512c-.0741-.0714-.1617-.1275-.2576-.1651-.0958-.0376-.1982-.056-.3011-.054l-.0064.0001h-1.049v1.5038h1.0137c.5262 0 .8406-.385.8406-.7347zm-1.8552-2.3081h.5943c.4901 0 .7355-.3144.7355-.6641s-.2454-.6641-.7355-.6641h-.5951zm4.0591 2.4133c0 1.1532-.8405 2.3073-2.4813 2.3073h-4.6567v-1.6812h.8044v-4.3709h-.8044v-1.7097h4.1104c1.5853 0 2.3628 1.0137 2.3628 2.1013-.0048.5369-.2182 1.0509-.5951 1.4333.9111.4161 1.2608 1.1507 1.2608 1.9199zm16.2835-23.6376v2.536h1.6476v-.8448h.9347v4.36h-.8011v1.6904h3.9179v-1.6904h-.8456v-4.3601h.9347v.8449h1.6921v-2.5361zm-12.648 12.6622h1.0432c.6985 0 1.2709-.2521 1.2709-.9481 0-.7397-.5749-.9448-1.2734-.9448h-1.0407zm.6649 4.1961h-3.8489v-1.7173h.9103v-4.3709h-.9103v-1.6442h4.734c2.0712 0 3.1152 1.1298 3.1152 2.5663-.0082.4725-.1423.9342-.3885 1.3376-.2461.4034-.5955.7338-1.0119.9572.1395.8405.8691 1.154 1.7728 1.154h1.4457v-4.3709h-1.2272v-1.6442h4.6542v1.6442h-1.223v4.3709h1.2247v1.7131h-4.9711c-2.2536 0-3.3219-.8742-3.8456-2.5217h-1.0927v.8044h.6648v1.714zm7.7921-13.0725h1.3802l-.7145-1.8728zm-7.8122 3.9599h-3.8288v-1.6945h.9347v-4.3601h-.9347v-1.6912h3.9178v1.6912h-.7565v1.3349h.8019c1.0239 0 1.6476-.4901 1.6476-1.3349h-.6683v-1.6912h3.6985v1.6912h-.938c0 1.1567-.8019 2.1351-1.603 2.5806.2219 1.2011.9112 1.7795 2.4242 1.6912l1.6921-4.2718h-.5792v-1.6912h4.3634l2.3158 6.0521h.8011v1.6904h-3.9188v-1.6912h.6211l-.1782-.5784h-2.5805l-.1782.5784h.712v1.6903h-1.5383c-2.6714 0-3.021 0-4.0011-.4001-.9347-.4001-1.6476-1.3793-2.004-2.6251h-.8901v1.3349h.6675zm-4.4668 9.1194h-6.9507v-1.6879h.8456v-4.36h-.8456v-1.6913h6.9507v2.5814h-1.7408v-.8901h-2.1376v1.2902h2.0039v1.6904h-2.0039v1.3819h2.1376v-.8901h1.7358zm19.8895-7.7382h3.9876v1.6432h-.8405v6.0815h-2.4847l-3.0479-4.4012v2.6898h.9044v1.7131h-4.0213v-1.7131h.9112v-4.3709h-.9112v-1.6434h3.327l3.1177 4.4374v-2.7932h-.9423zm-19.8937-1.3812h-6.9465v-1.6945h.8456v-4.3601h-.8456v-1.6912h6.9507v2.5813h-1.7408v-.8901h-2.1376v1.2902h2.0039v1.6904h-2.0039v1.3794h2.1376v-.8893h1.7408zm20.1114 13.7058v1.6441h1.7761v.6481c-.4514.39-.9095.517-1.5046.517-1.1197-.0345-1.8552-.97-1.8552-2.2309 0-1.3752.6952-2.1998 1.8552-2.1998.3842-.0156.7649.0792 1.0969.2732l.0084.8095h1.9594v-1.814c-.7397-.6169-1.6669-1.0549-3.2059-1.0549-2.6604 0-3.9507 1.9459-3.9507 4.0205-.0142.628.1179 1.2508.3858 1.819-.5825.559-1.7887.3303-2.1855-.833.4198-.2223.7723-.553 1.0208-.9578s.3839-.8688.3922-1.3437c0-1.4366-1.044-2.5654-3.1143-2.5654h-8.2585v1.713h1.0179v3.0076c0 .9086-.596 1.3634-1.2247 1.3634s-1.2945-.4901-1.2945-1.3634v-3.0076h.8406v-1.713h-3.9162v1.713h.7346v2.9067c0 2.3074 1.7812 3.3564 3.5304 3.3564 1.9947 0 3.5346-1.1894 3.5346-3.3564v-2.9024h1.3785v4.3709h-.9582v1.6811h3.8498v-1.6811h-.6909v-.8405h1.0002c1.0414 2.8394 3.9835 3.0521 5.6697 2.0282.4539.3488 1.2936.6287 2.3435.6287 1.7845 0 2.9739-.7623 3.4993-1.7416v-2.8949zm-7.7618.3337h-1.0163v-1.8888h1.0146c.6985 0 1.2735.2051 1.2735.944 0 .6977-.5733.9448-1.2718.9448z" fill="#fff"/></g></svg>