<svg width="60" height="60" viewBox="0 0 60 60" fill="none" xmlns="http://www.w3.org/2000/svg">
<g clip-path="url(#clip0_3559_4033)">
<mask id="mask0_3559_4033" style="mask-type:alpha" maskUnits="userSpaceOnUse" x="-1" y="0" width="61" height="60">
<circle cx="29.998" cy="30" r="30" fill="#C4C4C4"/>
</mask>
<g mask="url(#mask0_3559_4033)">
<path d="M-5.3489 53.0879L32.6211 15.1179L24.48 6.97679L-5.3489 36.8057L-5.3489 53.0879Z" fill="#00B4FF"/>
<path fill-rule="evenodd" clip-rule="evenodd" d="M55.5434 38.3071C49.1595 38.3071 43.9844 43.4823 43.9844 49.8661C43.9844 56.25 49.1595 61.4252 55.5434 61.4252C61.9273 61.4252 67.1024 56.25 67.1024 49.8661C67.1024 43.4823 61.9273 38.3071 55.5434 38.3071ZM35.5469 49.8661C35.5469 38.8224 44.4996 29.8696 55.5434 29.8696C66.5872 29.8696 75.54 38.8224 75.54 49.8661C75.54 60.9099 66.5872 69.8627 55.5434 69.8627C44.4996 69.8627 35.5469 60.9099 35.5469 49.8661Z" fill="#00B400"/>
<path d="M19.9562 23.623H11.6641V21.6046H12.6737V16.3998H11.6641V14.3813H19.9562V17.4621H17.8834V16.3998H15.3321V17.9401H17.7241V19.9586H15.3321V21.6052H17.8834V20.5429H19.9562V23.623ZM25.2943 23.623H20.723V21.6046H21.8391V16.3998H20.723V14.3813H25.4007V16.3998H24.4974V17.993H25.4542C26.6767 17.993 27.4207 17.4086 27.4207 16.3998H26.6232V14.3813H31.0352V16.3998H29.9185C29.9185 17.781 28.9617 18.949 28.0049 19.4805C28.2705 20.9146 29.0908 21.6052 30.898 21.4989L32.9181 16.4004H32.2269V14.3813H37.4358L40.1999 21.6046H41.1567V23.623H36.479V21.6046H37.2231L37.0103 20.9139H33.9271L33.7143 21.6046H34.5647V23.623H32.7287C29.5391 23.623 29.1216 23.623 27.952 23.145C26.8359 22.6669 25.9855 21.4983 25.56 20.0114H24.4968V21.6046H25.2943V23.623ZM34.6196 18.8955H36.2676L35.4172 16.6645L34.6196 18.8955ZM25.3184 34.5006H20.723V32.4555H21.8096V27.238H20.723V25.2757H26.3749C28.8466 25.2757 30.0931 26.6242 30.0931 28.3384C30.0931 29.3399 29.5498 30.4518 28.4217 31.0782C28.5883 32.0797 29.4588 32.4561 30.5374 32.4561H32.2637V27.238H30.801V25.2757H36.3572V27.238H34.8946V32.4555H36.3572V34.5006H30.4223C27.7319 34.5006 26.4572 33.457 25.8316 31.4947H24.5242V32.4548H25.3177V34.5006H25.3184ZM24.5242 29.4917H25.7694C26.6031 29.4917 27.2896 29.1975 27.2896 28.3645C27.2896 27.482 26.6031 27.2373 25.7694 27.2373H24.5242V29.4917ZM19.9562 31.4372H17.8834V32.4996H15.3321V30.8529H17.7241V28.8345H15.3321V27.2941H17.8834V28.3565H19.9562V25.2757H11.6641V27.2941H12.6737V32.4989H11.6641V34.5173H19.9562V31.4372ZM39.6231 14.3813V17.4086H41.5896V16.3998H42.7057V21.6046H41.7489V23.623H46.4265V21.6046H45.4169V16.3998H46.5329V17.4086H48.5529V14.3813L39.6231 14.3813ZM43.7046 27.238H44.8294V30.5721L41.1079 25.2757H37.1361V27.2373H38.2254V32.4548H37.1361V34.5H41.9402V32.4548H40.8576V29.2457L44.4955 34.5H47.4616V27.238H48.468V25.2764H43.7053V27.238H43.7046ZM20.1857 42.5983C20.1857 43.9756 19.1794 45.3535 17.2236 45.3535H11.6641V43.3498H12.6249V38.1323H11.6641V36.0871H16.5706C18.4635 36.0871 19.3922 37.2973 19.3922 38.5916C19.3922 39.1759 19.1834 39.7603 18.6816 40.3031C19.7682 40.8039 20.1857 41.6804 20.1857 42.5983ZM15.3401 39.7181H16.0507C16.6355 39.7181 16.9279 39.3424 16.9279 38.9252C16.9279 38.508 16.6355 38.1323 16.0507 38.1323H15.3401V39.7181ZM17.5542 42.4733C17.5542 42.014 17.1781 41.5547 16.5933 41.5547H15.3401V43.3498H16.5518C17.1781 43.3498 17.5542 42.8905 17.5542 42.4733ZM43.9663 39.9883H48.4251V43.4414C47.7982 44.6101 46.3784 45.5207 44.248 45.5207C42.9947 45.5207 41.9924 45.1864 41.4498 44.7699C39.4371 45.9927 35.925 45.7386 34.6818 42.3483H33.4861V43.3498H34.3064V45.3535H29.7111V43.3498H30.8546V38.1323H29.2092V41.5968C29.2092 44.1842 27.3712 45.6036 24.9899 45.6036C22.9016 45.6036 20.7712 44.352 20.7712 41.5968V38.1323H19.894V36.0871H24.573V38.1323H23.57V41.7225C23.57 42.7655 24.3643 43.3498 25.1157 43.3498C25.8677 43.3498 26.5777 42.8076 26.5777 41.7225V38.1323H25.3659V36.0871H35.2245C37.6961 36.0871 38.9426 37.435 38.9426 39.1499C38.9426 40.1561 38.3947 41.2732 37.2558 41.8977C37.7296 43.2856 39.1695 43.5591 39.8613 42.8912C39.5274 42.2233 39.4017 41.4718 39.4017 40.7203C39.4017 38.244 40.9419 35.9207 44.1215 35.9207C45.9582 35.9207 47.0655 36.4435 47.9481 37.1803V39.3451H45.6089L45.5989 38.3797C45.2382 38.1564 44.8174 38.0534 44.2888 38.0534C42.9044 38.0534 42.074 39.0375 42.074 40.6796C42.074 42.1818 42.9519 43.301 44.2888 43.3425C44.9994 43.3425 45.546 43.1907 46.0846 42.7247V41.9512H43.9649V39.9883H43.9663ZM36.2194 39.2595C36.2194 38.377 35.5329 38.1323 34.6992 38.1323H33.4855V40.3867H34.6992C35.5329 40.3867 36.2194 40.0919 36.2194 39.2595Z" fill="white"/>
</g>
</g>
<defs>
<clipPath id="clip0_3559_4033">
<rect width="60" height="60" rx="30" fill="white"/>
</clipPath>
</defs>
</svg>
