<svg xmlns="http://www.w3.org/2000/svg" width="120" height="120" fill="none"><rect width="120" height="120" fill="#000" rx="60"/><rect width="120" height="120" fill="#000" rx="60"/><mask id="a" width="38" height="56" x="11" y="32" fill="#000" maskUnits="userSpaceOnUse"><path fill="#fff" d="M11 32h38v56H11z"/><path d="M18 41.063c0-1.158 0-1.737.274-2.125a1.5 1.5 0 0 1 .599-.5c.431-.198 1-.093 2.139.117l18.9 3.48c.817.15 1.225.226 1.517.457.164.129.3.291.397.476.174.33.174.744.174 1.575v30.914c0 .83 0 1.246-.174 1.575a1.5 1.5 0 0 1-.397.477c-.292.23-.7.305-1.517.456l-18.9 3.48c-1.138.21-1.708.315-2.14.116a1.5 1.5 0 0 1-.598-.499C18 80.674 18 80.095 18 78.938V41.062Z"/></mask><path fill="#00B400" d="M18 41.063c0-1.158 0-1.737.274-2.125a1.5 1.5 0 0 1 .599-.5c.431-.198 1-.093 2.139.117l18.9 3.48c.817.15 1.225.226 1.517.457.164.129.3.291.397.476.174.33.174.744.174 1.575v30.914c0 .83 0 1.246-.174 1.575a1.5 1.5 0 0 1-.397.477c-.292.23-.7.305-1.517.456l-18.9 3.48c-1.138.21-1.708.315-2.14.116a1.5 1.5 0 0 1-.598-.499C18 80.674 18 80.095 18 78.938V41.062Z"/><path fill="#000" d="m18.873 81.561-2.51 5.45 2.51-5.45Zm-.6-.499-4.905 3.455 4.906-3.455Zm23.553-4.03-5.305-2.803 5.305 2.803Zm-1.914.933-1.087-5.901 1.087 5.9Zm1.517-.457 3.718 4.71-3.718-4.71Zm0-35.016 3.718-4.71-3.718 4.71Zm.397.476-5.305 2.803 5.305-2.803Zm-23.552-4.03-4.906-3.455 4.906 3.455Zm1.651 5.517 18.9 3.481L41 36.135l-18.9-3.481-2.174 11.801ZM36 44.543v30.914h12V44.543H36Zm2.825 27.52-18.9 3.482L22.1 87.346l18.9-3.48-2.174-11.802ZM24 78.938V41.063H12v37.874h12Zm-4.075-3.392c-.301.055-.489.09-.64.114-.154.025-.162.023-.095.017.108-.009 1.055-.088 2.192.435l-5.018 10.9c1.568.722 3.016.69 3.8.626.712-.058 1.49-.209 1.935-.29l-2.174-11.802ZM12 78.937c0 .453-.007 1.245.065 1.955.079.784.309 2.213 1.303 3.625l9.811-6.91c.72 1.024.814 1.97.825 2.077.006.067.002.06 0-.096a36.483 36.483 0 0 1-.004-.65H12Zm9.382-2.826c.72.332 1.34.848 1.797 1.497l-9.811 6.909a7.5 7.5 0 0 0 2.996 2.494l5.018-10.9ZM36 75.457c0 .222 0 .349-.002.449-.002.1-.004.082.003.005.015-.166.088-.863.52-1.682l10.61 5.606a7.49 7.49 0 0 0 .825-2.88c.05-.57.044-1.188.044-1.498H36Zm4.999 8.408c.305-.056.913-.162 1.464-.315a7.491 7.491 0 0 0 2.684-1.332l-7.435-9.42a4.542 4.542 0 0 1 1.56-.815c.074-.02.092-.022-.005-.002-.099.02-.223.043-.442.083L41 83.865ZM36.52 74.23a4.5 4.5 0 0 1 1.191-1.43l7.435 9.42a7.5 7.5 0 0 0 1.984-2.384l-10.61-5.606Zm2.304-26.293c.219.04.343.064.441.083.098.02.08.019.006-.002a4.542 4.542 0 0 1-1.56-.816l7.435-9.42a7.49 7.49 0 0 0-2.684-1.331c-.551-.153-1.159-.26-1.464-.315l-2.174 11.801ZM48 44.543c0-.31.005-.927-.044-1.497a7.49 7.49 0 0 0-.825-2.88l-10.61 5.605a4.545 4.545 0 0 1-.52-1.682c-.007-.077-.005-.095-.003.005s.002.227.002.45h12Zm-10.288 2.658a4.5 4.5 0 0 1-1.19-1.43l10.61-5.605a7.498 7.498 0 0 0-1.985-2.384l-7.435 9.42ZM22.1 32.654c-.445-.082-1.223-.233-1.935-.29-.784-.064-2.232-.097-3.8.625l5.018 10.9c-1.137.523-2.084.444-2.192.435-.067-.006-.059-.008.095.017.151.025.339.059.64.114L22.1 32.654ZM24 41.062c0-.306 0-.496.003-.65.003-.156.008-.163 0-.096-.01.107-.103 1.053-.824 2.076l-9.811-6.909c-.994 1.412-1.224 2.841-1.303 3.625-.072.71-.065 1.502-.065 1.955h12Zm-7.636-8.073a7.5 7.5 0 0 0-2.996 2.494l9.811 6.91a4.5 4.5 0 0 1-1.797 1.496l-5.018-10.9Z" mask="url(#a)"/><path fill="#00B4FF" stroke="#000" stroke-width="6" d="m27.977 90.405 2.414-1.782-2.414 1.782a5 5 0 0 0 2.123 1.656c1.027.422 2.004.363 2.697.263.628-.09 1.356-.274 2.054-.449l.108-.027 17.2-4.32.076-.019c.438-.11.928-.233 1.348-.377.489-.167 1.097-.43 1.675-.926a5.002 5.002 0 0 0 1.214-1.557l-2.683-1.342 2.683 1.342c.341-.682.448-1.336.491-1.85.037-.443.037-.948.037-1.4V38.6c0-.451 0-.956-.037-1.399-.043-.514-.15-1.168-.49-1.85a5 5 0 0 0-1.215-1.557l-1.955 2.276 1.955-2.276c-.578-.496-1.187-.76-1.675-.926-.42-.144-.91-.267-1.348-.377l-.076-.02-17.2-4.319-.108-.027c-.698-.175-1.426-.358-2.054-.45-.693-.1-1.67-.158-2.697.264a5 5 0 0 0-2.123 1.656c-.66.894-.84 1.855-.912 2.551C27 32.778 27 33.528 27 34.248V85.752c0 .72 0 1.47.065 2.102.071.696.252 1.657.912 2.551Z"/><mask id="b" width="43" height="86" x="39" y="17" fill="#000" maskUnits="userSpaceOnUse"><path fill="#fff" d="M39 17h43v86H39z"/><path d="M46 27.922c0-2.2 0-3.3.53-3.98a2.5 2.5 0 0 1 1.14-.817c.814-.286 1.856.066 3.94.77l21.5 7.262c1.143.386 1.714.58 2.115.961a2.5 2.5 0 0 1 .541.754c.234.502.234 1.105.234 2.312v49.632c0 1.207 0 1.81-.234 2.312a2.5 2.5 0 0 1-.541.754c-.4.382-.972.575-2.115.96l-21.5 7.263c-2.084.704-3.126 1.056-3.94.77a2.5 2.5 0 0 1-1.14-.818C46 95.378 46 94.278 46 92.08V27.922Z"/></mask><path fill="#FFD400" d="M46 27.922c0-2.2 0-3.3.53-3.98a2.5 2.5 0 0 1 1.14-.817c.814-.286 1.856.066 3.94.77l21.5 7.262c1.143.386 1.714.58 2.115.961a2.5 2.5 0 0 1 .541.754c.234.502.234 1.105.234 2.312v49.632c0 1.207 0 1.81-.234 2.312a2.5 2.5 0 0 1-.541.754c-.4.382-.972.575-2.115.96l-21.5 7.263c-2.084.704-3.126 1.056-3.94.77a2.5 2.5 0 0 1-1.14-.818C46 95.378 46 94.278 46 92.08V27.922Z"/><path fill="#000" d="m51.61 96.105-1.92-5.684 1.92 5.684Zm-3.94.77-1.989 5.661 1.99-5.66Zm-1.14-.818 4.727-3.697-4.726 3.697Zm29.236-8.93 5.44 2.533-5.44-2.532Zm-2.656 1.716 1.92 5.684-1.92-5.684Zm2.115-.961 4.14 4.343-4.14-4.343ZM73.11 31.157l-1.92 5.685 1.92-5.685Zm2.115.961-4.14 4.343 4.14-4.343Zm.541.754 5.44-2.532-5.44 2.532ZM51.61 23.895l-1.92 5.684 1.92-5.684Zm-1.92 5.684 21.5 7.263 3.84-11.37-21.5-7.262-3.84 11.37ZM70 35.184v49.632h12V35.184H70Zm1.19 47.974-21.5 7.263 3.84 11.369 21.5-7.263-3.84-11.369ZM52 92.078V27.922H40v64.157h12Zm-2.31-1.657c-.537.181-.933.314-1.269.42a7.95 7.95 0 0 1-.576.167c-.073.017.09-.028.398-.033.344-.005.848.04 1.418.24l-3.98 11.321c1.974.694 3.756.414 4.801.179 1.001-.226 2.132-.616 3.048-.925l-3.84-11.37ZM40 92.078c0 .968-.008 2.164.099 3.184.111 1.066.417 2.844 1.706 4.492l9.452-7.394c.372.476.575.939.68 1.267.095.293.105.462.097.388a8.02 8.02 0 0 1-.027-.6C52 93.063 52 92.645 52 92.078H40Zm9.66-.863a3.5 3.5 0 0 1 1.597 1.145l-9.452 7.394a8.506 8.506 0 0 0 3.876 2.782l3.98-11.321ZM70 84.816c0 .315 0 .529-.003.706-.003.177-.007.237-.007.235 0-.007.011-.142.058-.35.05-.225.137-.507.28-.812l10.878 5.065c.53-1.139.685-2.194.746-2.944.052-.66.048-1.391.048-1.9H70Zm5.03 9.711c.482-.162 1.177-.392 1.784-.653.692-.297 1.642-.782 2.551-1.65l-8.28-8.685c.244-.232.483-.404.68-.524.182-.112.307-.165.313-.167.001 0-.053.022-.22.082-.168.06-.37.127-.668.228l3.84 11.37Zm-4.703-9.932a3.5 3.5 0 0 1 .758-1.056l8.28 8.686a8.499 8.499 0 0 0 1.84-2.565l-10.878-5.065Zm.863-47.753c.299.1.5.169.668.228.167.06.221.083.22.082a2.639 2.639 0 0 1-.313-.167 4.041 4.041 0 0 1-.68-.524l8.28-8.686c-.91-.867-1.86-1.352-2.55-1.649-.608-.26-1.303-.49-1.785-.653l-3.84 11.369ZM82 35.184c0-.509.004-1.24-.048-1.9-.06-.75-.216-1.805-.746-2.944l-10.879 5.065a4.043 4.043 0 0 1-.28-.812c-.046-.208-.056-.343-.057-.35 0-.002.004.058.007.235s.003.39.003.706h12ZM71.085 36.46a3.5 3.5 0 0 1-.758-1.056l10.879-5.065a8.5 8.5 0 0 0-1.84-2.565l-8.281 8.686ZM53.53 18.21c-.916-.31-2.047-.7-3.048-.926-1.045-.235-2.827-.515-4.801.18l3.98 11.32c-.57.2-1.074.245-1.418.24-.308-.005-.471-.05-.398-.033.07.016.238.06.576.166.336.107.732.24 1.269.421l3.84-11.369ZM52 27.92c0-.567 0-.984.007-1.336a8.02 8.02 0 0 1 .027-.6c.008-.074-.002.095-.096.388-.106.328-.309.79-.681 1.267l-9.452-7.394c-1.29 1.649-1.595 3.426-1.706 4.492-.107 1.02-.099 2.216-.099 3.184h12Zm-6.319-10.457a8.5 8.5 0 0 0-3.876 2.782l9.452 7.394a3.5 3.5 0 0 1-1.596 1.145l-3.98-11.32Z" mask="url(#b)"/><path fill="#00B400" stroke="#000" stroke-width="6" d="m66.477 105.013 2.261-1.971-2.261 1.971a6 6 0 0 0 3.1 1.887c1.45.355 2.774-.022 3.77-.41.964-.376 2.101-.964 3.344-1.606l.13-.067 21.8-11.272.231-.12c.848-.433 1.919-.98 2.695-1.882a6.011 6.011 0 0 0 1.019-1.674c.444-1.104.439-2.306.435-3.258L103 86.35v-52.7l.001-.26c.004-.953.009-2.155-.435-3.259a6.01 6.01 0 0 0-1.019-1.674c-.776-.902-1.847-1.45-2.695-1.883l-.232-.119-21.8-11.272-.13-.067c-1.242-.642-2.379-1.23-3.343-1.606-.996-.387-2.32-.765-3.77-.41l.711 2.914-.712-2.914a6 6 0 0 0-3.1 1.887c-.981 1.126-1.254 2.475-1.367 3.538C65 19.554 65 20.834 65 22.233V97.767c0 1.4 0 2.679.11 3.708.112 1.063.385 2.412 1.367 3.538Z"/></svg>