<svg xmlns="http://www.w3.org/2000/svg" width="120" height="120" fill="none"><rect width="120" height="120" fill="#000" rx="60"/><rect width="120" height="120" fill="#000" rx="60"/><path fill="#00B400" stroke="#000" stroke-width="6" d="m40.455 39.085-18.9-3.48-.091-.017c-.487-.09-1.05-.194-1.543-.234-.562-.046-1.41-.05-2.303.36a4.5 4.5 0 0 0-1.797 1.497c-.566.803-.715 1.638-.772 2.199-.05.493-.05 1.065-.049 1.56V79.03c0 .495 0 1.067.05 1.56.056.56.205 1.396.77 2.2a4.5 4.5 0 0 0 1.798 1.496c.893.41 1.741.406 2.303.36.494-.04 1.056-.144 1.543-.234l.091-.016 18.9-3.481.07-.013c.345-.063.77-.141 1.14-.243a4.498 4.498 0 0 0 1.623-.796 4.502 4.502 0 0 0 1.19-1.43 4.498 4.498 0 0 0 .489-1.74C45 76.31 45 75.88 45 75.527V44.473c0-.352 0-.783-.033-1.166a4.498 4.498 0 0 0-.488-1.74 4.502 4.502 0 0 0-1.191-1.43 4.498 4.498 0 0 0-1.623-.795c-.37-.103-.795-.18-1.14-.244l-.07-.013Z"/><path fill="#00B4FF" stroke="#000" stroke-width="6" d="m52.159 32.472-17.2-4.32-.108-.027c-.698-.175-1.426-.358-2.054-.45-.693-.1-1.67-.158-2.697.264a5 5 0 0 0-2.123 1.656c-.66.894-.84 1.855-.912 2.551C27 32.778 27 33.528 27 34.248V85.752c0 .72 0 1.47.065 2.102.071.696.252 1.657.912 2.551a5 5 0 0 0 2.123 1.656c1.027.422 2.004.363 2.697.263.628-.09 1.356-.274 2.054-.449l.108-.027 17.2-4.32.076-.019c.438-.11.928-.233 1.348-.377.489-.167 1.097-.43 1.675-.926a5 5 0 0 0 1.214-1.557c.341-.682.448-1.336.491-1.85.037-.443.037-.948.037-1.4V38.6c0-.451 0-.956-.037-1.399-.043-.514-.15-1.168-.49-1.85a5 5 0 0 0-1.215-1.557c-.578-.496-1.187-.76-1.675-.926-.42-.144-.91-.267-1.348-.377l-.076-.02Z"/><path fill="#FFD400" stroke="#000" stroke-width="6" d="m74.07 28.315-21.5-7.262-.12-.041c-.938-.317-1.849-.625-2.627-.8-.834-.188-1.957-.336-3.147.082a5.5 5.5 0 0 0-2.508 1.8c-.777.994-.996 2.105-1.085 2.956C43 25.843 43 26.805 43 27.794V92.206c0 .99 0 1.95.083 2.744.089.85.308 1.962 1.085 2.955a5.5 5.5 0 0 0 2.508 1.8c1.19.419 2.313.27 3.147.083.778-.175 1.69-.483 2.626-.8l.121-.04 21.5-7.263.077-.026c.504-.17 1.034-.349 1.483-.542.514-.22 1.11-.535 1.665-1.064a5.5 5.5 0 0 0 1.191-1.66c.324-.694.43-1.36.475-1.917.04-.487.04-1.046.039-1.578V35.102c0-.532 0-1.091-.039-1.578-.044-.557-.151-1.223-.475-1.918a5.5 5.5 0 0 0-1.19-1.66c-.556-.528-1.152-.843-1.666-1.063a20.69 20.69 0 0 0-1.56-.568Z"/><path fill="#00B400" stroke="#000" stroke-width="6" d="m98.62 26.455-21.8-11.272-.13-.067c-1.242-.642-2.379-1.23-3.343-1.606-.996-.387-2.32-.765-3.77-.41a6 6 0 0 0-3.1 1.887c-.982 1.126-1.255 2.475-1.368 3.538C65 19.554 65 20.834 65 22.233V97.767c0 1.4 0 2.679.11 3.708.112 1.063.385 2.412 1.367 3.538a6 6 0 0 0 3.1 1.887c1.45.355 2.774-.022 3.77-.41.964-.376 2.101-.964 3.344-1.606l.13-.067 21.8-11.272.231-.12c.848-.433 1.919-.98 2.695-1.882a6.011 6.011 0 0 0 1.019-1.674c.444-1.104.439-2.306.435-3.258L103 86.35v-52.7l.001-.26c.004-.953.009-2.155-.435-3.259a6.011 6.011 0 0 0-1.019-1.674c-.776-.902-1.847-1.45-2.695-1.883l-.232-.119Z"/></svg>