<svg xmlns="http://www.w3.org/2000/svg" width="120" height="120" fill="none"><rect width="120" height="120" fill="#000" rx="60"/><path fill="#00B400" d="m37 76.503 23 23 23.001-23c6.44-6.44 9.546-15.066 9.546-23.46 0-18.171-15.18-32.547-32.546-32.547-17.365 0-32.546 14.376-32.546 32.546 0 8.395 3.105 17.02 9.545 23.46Zm23-47.151c13.111 0 23.692 11.27 23.692 23.69 0 6.095-2.415 12.305-7.016 17.02L60.001 86.854l-16.675-16.79c-4.6-4.716-7.016-10.926-7.016-17.02 0-12.421 10.58-23.691 23.69-23.691Zm-8.854 23.46c0 4.945 3.91 8.855 8.855 8.855s8.97-3.91 8.97-8.855-4.025-8.97-8.97-8.97-8.855 4.025-8.855 8.97Z"/></svg>