<svg xmlns="http://www.w3.org/2000/svg" width="120" height="120" fill="none"><g clip-path="url(#a)"><g clip-path="url(#b)"><rect width="120" height="120" fill="#00B400" rx="60"/><path fill="#000" d="M59.99.006A59.182 59.182 0 0 0 8.01 29.51h80.892v13.038H2.457A62.63 62.63 0 0 0 .006 59.99a59.17 59.17 0 0 0 59.984 60.004 59.196 59.196 0 0 0 42.675-17.329 59.196 59.196 0 0 0 17.329-42.675 59.161 59.161 0 0 0-17.331-42.666A59.175 59.175 0 0 0 59.991.006Zm28.911 66.513H44.712s-.02 1.398.02 3.102c.133 6.414 2.029 7.812 8.328 7.812H88.9V90.49H53.328c-16.332 0-23.378-5.399-23.378-22.094V53.462h58.951v13.057Z"/></g></g><defs><clipPath id="a"><rect width="120" height="120" fill="#fff" rx="60"/></clipPath><clipPath id="b"><rect width="120" height="120" fill="#fff" rx="60"/></clipPath></defs></svg>